<svg width="981" height="918" viewBox="0 0 981 918" fill="none" xmlns="http://www.w3.org/2000/svg">
<path fill-rule="evenodd" clip-rule="evenodd" d="M725.413 0C857.462 0 966.064 100.365 979.137 228.999C980.008 237.568 980.449 246.277 980.449 255.085C980.449 449.036 831.526 578.9 693.127 699.587C610.363 771.759 531.362 840.649 490.225 918C449.085 840.642 370.081 771.748 287.313 699.572C282.922 695.743 278.52 691.904 274.112 688.054L497.876 522.928L538.97 683.453C538.97 683.453 599.638 544.321 656.467 454.769C710.382 369.812 820.43 236.632 820.43 236.632C820.43 236.632 660.721 302.517 563.644 328.984C461.317 356.881 310.482 373.827 310.482 373.827L451.753 460.427L214.786 635.297C101.501 531.639 0 415.201 0 255.085C0 246.277 0.441206 237.568 1.31371 228.999C14.3735 100.365 122.987 0 255.045 0C360.875 0 451.616 64.4744 490.225 156.278C528.833 64.4744 619.574 0 725.413 0Z" fill="#F25656"/>
</svg>
