<svg width="868" height="881" viewBox="0 0 868 881" fill="none" xmlns="http://www.w3.org/2000/svg">
<path fill-rule="evenodd" clip-rule="evenodd" d="M583.101 0C678.322 0 756.636 72.3737 766.063 165.133C766.691 171.312 767.009 177.592 767.009 183.944C767.009 323.804 659.62 417.449 559.819 504.477C500.137 556.521 443.169 606.198 413.505 661.977C383.839 606.193 326.868 556.513 267.184 504.467C264.017 501.705 260.843 498.937 257.664 496.161L419.022 377.087L448.655 492.843C448.655 492.843 492.403 392.514 533.383 327.938C572.261 266.674 651.618 170.637 651.618 170.637C651.618 170.637 536.451 218.147 466.448 237.233C392.659 257.35 283.891 269.57 283.891 269.57L385.763 332.018L214.883 458.117C133.193 383.369 60 299.404 60 183.944C60 177.592 60.3181 171.312 60.9473 165.133C70.3648 72.3737 148.687 0 243.915 0C320.229 0 385.663 46.493 413.505 112.693C441.346 46.493 506.78 0 583.101 0Z" fill="#F25656"/>
<path d="M44.4695 725.89L46.0175 743.762C56.8065 729.971 71.3013 723.075 89.5019 723.075C108.735 723.075 121.728 730.721 128.483 746.014C138.803 730.721 153.72 723.075 173.234 723.075C204.1 723.075 219.955 741.745 220.8 779.084V878.156H173.234V782.04C173.234 774.253 171.921 768.577 169.294 765.012C166.667 761.447 161.882 759.664 154.94 759.664C145.558 759.664 138.569 763.839 133.971 772.189L134.112 774.159V878.156H86.5467V782.321C86.5467 774.347 85.2802 768.577 82.7471 765.012C80.214 761.447 75.3824 759.664 68.2523 759.664C59.152 759.664 52.2095 763.839 47.4248 772.189V878.156H0V725.89H44.4695Z" fill="black"/>
<path d="M333.662 878.156C331.973 875.06 330.472 870.51 329.159 864.505C320.434 875.482 308.238 880.97 292.57 880.97C278.216 880.97 266.02 876.655 255.981 868.023C245.943 859.298 240.923 848.369 240.923 835.234C240.923 818.722 247.022 806.244 259.218 797.801C271.414 789.357 289.146 785.136 312.412 785.136H327.048V777.114C327.048 763.135 320.997 756.146 308.894 756.146C297.636 756.146 292.007 761.681 292.007 772.752H244.582C244.582 758.022 250.821 746.061 263.299 736.866C275.871 727.672 291.866 723.075 311.287 723.075C330.707 723.075 346.046 727.813 357.304 737.289C368.562 746.764 374.332 759.758 374.613 776.27V843.678C374.801 857.657 376.959 868.352 381.087 875.763V878.156H333.662ZM303.969 847.196C309.879 847.196 314.758 845.929 318.604 843.396C322.545 840.863 325.359 838.002 327.048 834.812V810.466H313.257C296.745 810.466 288.489 817.878 288.489 832.701C288.489 837.017 289.943 840.535 292.852 843.256C295.76 845.882 299.466 847.196 303.969 847.196Z" fill="black"/>
<path d="M456.235 688.034V725.89H481.284V758.82H456.235V828.479C456.235 834.202 457.267 838.189 459.331 840.441C461.395 842.693 465.476 843.818 471.574 843.818C476.265 843.818 480.205 843.537 483.395 842.974V876.889C474.858 879.61 465.945 880.97 456.657 880.97C440.333 880.97 428.277 877.124 420.49 869.431C412.703 861.738 408.81 850.057 408.81 834.39V758.82H389.39V725.89H408.81V688.034H456.235Z" fill="black"/>
<path d="M564.453 844.381C571.114 844.381 576.274 842.599 579.933 839.034C583.592 835.375 585.375 830.309 585.281 823.835H629.75C629.75 840.535 623.746 854.232 611.737 864.927C599.823 875.623 584.436 880.97 565.579 880.97C543.438 880.97 525.988 874.028 513.229 860.143C500.47 846.258 494.09 827.025 494.09 802.445V800.475C494.09 785.089 496.905 771.532 502.534 759.805C508.257 747.984 516.466 738.93 527.161 732.645C537.856 726.265 550.521 723.075 565.157 723.075C584.952 723.075 600.667 728.564 612.3 739.54C623.934 750.517 629.75 765.387 629.75 784.15H585.281C585.281 776.27 583.358 770.219 579.511 765.997C575.664 761.775 570.505 759.664 564.031 759.664C551.741 759.664 544.564 767.498 542.5 783.165C541.843 788.138 541.515 794.986 541.515 803.711C541.515 819.004 543.344 829.605 547.003 835.516C550.662 841.426 556.479 844.381 564.453 844.381Z" fill="black"/>
<path d="M696.173 742.214C706.305 729.455 719.252 723.075 735.014 723.075C751.807 723.075 764.472 728.048 773.01 737.992C781.547 747.937 785.91 762.619 786.097 782.04V878.156H738.532V783.165C738.532 775.097 736.89 769.187 733.606 765.434C730.323 761.587 724.741 759.664 716.86 759.664C707.103 759.664 700.207 762.76 696.173 768.952V878.156H648.748V662H696.173V742.214Z" fill="black"/>
<path d="M841.825 832.138C849.33 832.138 855.569 834.39 860.542 838.893C865.514 843.302 868 848.978 868 855.921C868 862.863 865.514 868.586 860.542 873.089C855.569 877.499 849.33 879.704 841.825 879.704C834.226 879.704 827.94 877.452 822.968 872.949C818.089 868.446 815.65 862.77 815.65 855.921C815.65 849.072 818.089 843.396 822.968 838.893C827.94 834.39 834.226 832.138 841.825 832.138Z" fill="black"/>
</svg>
